<?xml version="1.0" encoding="UTF-8"?>
<svg id="design" xmlns="http://www.w3.org/2000/svg" viewBox="0 0 244.94 244.94">
  <defs>
    <style>
      .cls-1 {
        fill: #d7000f;
      }
    </style>
  </defs>
  <path class="cls-1" d="M242.53,124.76h0s2.41-2.29,2.41-2.29l-2.41-2.29s0,0,0,0l-29.43-28.04-28.48-27.13c-1.32-1.26-3.42-3.35-4.68-4.68l-35.13-36.88L124.76,2.41s0,0,0,0l-2.29-2.41-57.44,60.3c-1.26,1.32-3.36,3.43-4.69,4.69L0,122.47l60.31,57.45c1.32,1.26,3.42,3.36,4.68,4.68l57.48,60.34,2.29-2.41s0,0,0,0l13.41-14.08,41.75-43.82c1.26-1.32,3.35-3.41,4.67-4.67l50.35-47.96,7.59-7.23ZM131.93,231.81c-1.26,1.32-1.48,1.15-.5-.39l7.35-11.43,24.51-38.14c.99-1.54,3.26-2.48,5.05-2.1l7.69,1.65c1.79.38,2.22,1.78.96,3.11l-41.02,43.06-4.04,4.24ZM133.06,14.3c1.26,1.32,1.91,2.47,1.45,2.54-.46.07-1.65-1.12-2.64-2.66l-.43-.67c-.99-1.54-.77-1.71.49-.39l1.12,1.18ZM150.6,32.72l26.39,27.7c1.26,1.32.83,2.72-.96,3.11l-7.69,1.65c-1.79.38-4.06-.56-5.05-2.1l-22.56-35.1-3.98-6.19c-.99-1.54-1.3-2.88-.69-2.98h0c.61-.1,2.14.9,3.4,2.23l11.13,11.68ZM235.9,116.9c1.32,1.26,1.02,1.72-.67,1.02l-46.94-19.44c-1.69-.7-3.88-2.53-4.87-4.07l-10.46-16.28c-.99-1.54-.74-3.85.55-5.15l5.59-5.59c1.29-1.29,3.44-1.32,4.76-.06l36.89,35.15,15.14,14.42ZM129.99,229.61c-.99,1.54-1.22,1.41-.52-.28l24.35-58.78c.7-1.69,2.2-1.9,3.33-.46l2.23,2.84,1.82,2.32c1.13,1.44,1.24,3.88.25,5.42l-26.45,41.16-5,7.77ZM113.01,231.81l-45.06-47.3c-1.26-1.32-.83-2.72.96-3.11l7.69-1.65c1.79-.38,4.06.56,5.05,2.1l31.86,49.58c.99,1.53.76,1.71-.5.38ZM9.7,127.02l39.34,16.29,7.61,3.15c1.69.7,3.88,2.53,4.87,4.07l10.46,16.28c.99,1.54.74,3.86-.55,5.15l-5.59,5.59c-1.29,1.29-3.44,1.32-4.76.06l-52.03-49.57c-1.32-1.26-1.03-1.72.66-1.02ZM9.04,116.9l52.03-49.57c1.32-1.26,3.47-1.24,4.76.06l5.59,5.59c1.29,1.29,1.54,3.61.55,5.15l-10.46,16.28c-.99,1.54-3.18,3.37-4.87,4.07l-7.61,3.15-39.34,16.29c-1.69.7-1.99.24-.66-1.02ZM113.5,13.51l-.43.67c-.99,1.54-2.18,2.73-2.64,2.66-.46-.07.19-1.22,1.45-2.54l1.12-1.17c1.26-1.32,1.48-1.15.5.39ZM237.4,123.74l-49.91,20.67c-1.69.7-4.51.87-6.28.38l-8.78-2.43-10.25-2.84c-1.76-.49-3.21-2.39-3.21-4.22v-25.68c0-1.83,1.44-3.73,3.21-4.22l10.25-2.84,8.78-2.43c1.76-.49,4.59-.32,6.28.38l49.91,20.68c1.69.7,1.69,1.85,0,2.55ZM179.86,152.01l-8.49,13.21c-.99,1.54-2.86,1.74-4.15.45l-5.05-5.05c-1.29-1.29-.97-2.92.72-3.62l.23-.1,15.47-6.41c1.69-.7,2.26-.01,1.27,1.53ZM114.95,229.61l-31.45-48.93c-.99-1.54-.87-3.98.25-5.42l4.05-5.16c1.13-1.44,2.63-1.23,3.33.46l13.63,32.9,10.72,25.88c.7,1.68.46,1.8-.53.27ZM114.9,15.4l.05-.07c.99-1.54,1.22-1.41.53.27l-.33.81c-.7,1.69-1.44,2.78-1.65,2.43h0c-.21-.35.43-1.9,1.42-3.44ZM127.6,16.87c.7,1.69.87,2.91.38,2.71h0c-.49-.19-1.18-1.82-1.54-3.61l-.07-.37c-.36-1.79-.08-1.88.62-.2l.61,1.47ZM171.37,79.72l8.49,13.21c.99,1.54.42,2.23-1.27,1.53l-15.7-6.5c-1.69-.7-2.01-2.33-.72-3.62l5.05-5.05c1.29-1.29,3.16-1.09,4.15.45ZM177.9,98.77l-9.75,2.71-5.97,1.66c-1.76.49-3.21-.61-3.21-2.44v-8.66c0-1.83,1.38-2.75,3.07-2.05l15.99,6.62c1.69.7,1.63,1.67-.13,2.16ZM155.3,161.2c-.7,1.69-2.77,3.18-4.59,3.32l-3.08.23-5.22.39c-1.82.13-3.03-1.22-2.67-3.02l2.8-14.1c.36-1.79,1.71-2.2,3-.91l8.67,8.67c1.29,1.29,1.78,3.73,1.08,5.42h0ZM73.57,165.22l-8.49-13.21c-.99-1.54-.42-2.23,1.27-1.53l1.53.63,14.16,5.87c1.69.7,2.01,2.33.72,3.62l-5.05,5.05c-1.29,1.29-3.16,1.09-4.15-.45ZM77.72,79.27l5.05,5.05c1.29,1.29.97,2.92-.72,3.62l-15.69,6.5c-1.69.7-2.26.01-1.28-1.53l8.49-13.21c.99-1.54,2.86-1.74,4.15-.45ZM82.5,71.64l4.34,5.54c1.13,1.44,1.55,3.82.95,5.28-.61,1.47-2.16,1.61-3.46.31l-5.39-5.39c-1.29-1.29-1.54-3.61-.55-5.15l.26-.41c.99-1.54,2.72-1.62,3.85-.18ZM111.55,25.08l-1.46,3.52-18.96,45.78c-.7,1.69-2.2,1.9-3.33.46l-4.05-5.16c-1.13-1.44-1.24-3.88-.25-5.42l26.48-41.2c.99-1.54,2.03-2.41,2.32-1.93.29.48-.05,2.25-.75,3.94ZM113.62,25.84c.7-1.69,1.82-3.29,2.49-3.55h0c.67-.26.92.98.57,2.78l-9.75,49c-.36,1.79-2.14,3.37-3.97,3.51l-7.8.58c-1.82.13-2.74-1.14-2.05-2.82l18.05-43.58,2.44-5.9ZM117.34,16.86l.6-1.45c.7-1.69.98-1.6.63.18l-.08.39c-.36,1.79-1.05,3.41-1.53,3.61h0c-.49.19-.31-1.03.39-2.72ZM124.3,16.42c.35,1.79.34,3.56-.04,3.94-.38.38-.69-.81-.69-2.64v-1.63c0-1.83.29-1.86.65-.07l.08.4ZM128.83,22.28c.67.27,1.79,1.86,2.49,3.55l20.5,49.49c.7,1.69-.22,2.96-2.05,2.83l-1-.07-6.8-.5c-1.82-.13-3.61-1.71-3.97-3.51l-9.75-49c-.36-1.79-.1-3.05.57-2.78h0ZM98.3,164.82l-4.07-.3c-1.82-.13-3.89-1.63-4.59-3.32h0c-.7-1.69-.21-4.13,1.08-5.43l8.67-8.67c1.29-1.29,2.64-.88,3,.91l2.8,14.1c.36,1.79-.84,3.15-2.67,3.02l-4.22-.31ZM137.59,161.67c-.36,1.79-1.98,2.57-3.6,1.73l-7.47-3.87c-1.62-.84-2.95-3.03-2.95-4.86v-26.22c0-1.83,1.06-2.27,2.35-.97l13.06,13.06c1.29,1.29,2.06,3.82,1.7,5.61l-3.09,15.52ZM88.17,151.89v-7.76c0-1.83,1.47-3.03,3.26-2.67l5.49,1.09c1.79.36,2.2,1.71.91,3l-1.12,1.12-6.19,6.19c-1.29,1.29-2.35.85-2.35-.97ZM104.41,138.98c-1.29,1.29-3.82,2.06-5.61,1.7l-6.95-1.38-.41-.08c-1.79-.36-3.26-2.14-3.26-3.97v-25.55c0-1.83,1.47-3.61,3.26-3.97l7.36-1.46c1.79-.36,4.32.41,5.61,1.7l14.16,14.16c1.29,1.29,1.29,3.41,0,4.7l-8.55,8.55-5.61,5.61ZM88.17,93.04c0-1.83,1.06-2.26,2.35-.97l6.19,6.19,1.12,1.12c1.29,1.29.88,2.64-.91,3l-5.49,1.09c-1.79.36-3.26-.85-3.26-2.67v-7.76ZM120.42,23.21h0c.52.52.94,2.44.94,4.27v53.66c0,1.83-1.33,2.64-2.95,1.79l-7.02-3.64c-1.62-.84-2.66-3-2.3-4.79l9.74-48.97c.36-1.79,1.07-2.84,1.59-2.32ZM156.77,109.7v25.55c0,1.83-1.47,3.62-3.26,3.97l-7.36,1.46c-1.79.36-4.32-.41-5.61-1.7l-14.16-14.16c-1.29-1.29-1.29-3.41,0-4.7l14.16-14.16c1.29-1.29,3.82-2.06,5.61-1.7l7.36,1.46c1.79.36,3.26,2.15,3.26,3.97ZM138.98,104.41l-13.06,13.06c-1.29,1.29-2.35.86-2.35-.97v-26.22c0-1.83,1.33-4.02,2.95-4.86l7.47-3.87c1.62-.84,3.24-.06,3.6,1.73l3.09,15.52c.36,1.79-.41,4.32-1.7,5.61ZM121.37,17.72c0,1.83-.31,3.01-.69,2.63-.38-.38-.39-2.15-.04-3.95l.08-.38c.36-1.79.65-1.77.65.06v1.64ZM118.42,85.41c1.62.84,2.95,3.03,2.95,4.86v26.22c0,1.83-1.06,2.27-2.35.97l-13.06-13.06c-1.29-1.29-2.06-3.82-1.7-5.61l3.09-15.52c.36-1.79,1.98-2.57,3.6-1.73l7.47,3.87ZM156.77,93.05v7.76c0,1.83-1.47,3.03-3.26,2.68l-5.49-1.09c-1.79-.36-2.2-1.71-.91-3l7.31-7.31c1.29-1.29,2.35-.85,2.35.97ZM126.11,25.53l9.74,48.98c.36,1.79-.68,3.95-2.3,4.79l-5.46,2.83-1.56.81c-1.62.84-2.95.03-2.95-1.8V27.48c0-1.83.43-3.75.94-4.27h0c.52-.52,1.24.52,1.59,2.31ZM89.64,83.73c.7-1.69,2.77-3.18,4.59-3.31l4.07-.3,4.22-.31c1.82-.13,3.02,1.22,2.67,3.02l-2.8,14.1c-.36,1.79-1.71,2.2-3,.91l-8.67-8.67c-1.29-1.29-1.78-3.73-1.08-5.42h0ZM107.35,161.67l-3.09-15.52c-.36-1.79.41-4.32,1.7-5.61l13.06-13.06c1.29-1.29,2.35-.85,2.35.97v26.22c0,1.83-1.33,4.01-2.95,4.86l-7.47,3.87c-1.62.84-3.25.06-3.6-1.73ZM111.39,165.65l7.02-3.64c1.62-.84,2.95-.03,2.95,1.79v65.05c0,1.82-.29,1.85-.65.06l-11.63-58.47c-.36-1.79.68-3.95,2.3-4.79ZM148.23,146.67l-1.12-1.12c-1.29-1.29-.88-2.64.91-3l5.49-1.09c1.79-.36,3.26.85,3.26,2.68v7.76c0,1.83-1.06,2.27-2.35.97l-6.19-6.19ZM154.22,89.16l-8.67,8.67c-1.29,1.29-2.64.88-3-.91l-2.8-14.1c-.36-1.79.84-3.15,2.67-3.02l5.22.39,3.08.23c1.82.13,3.89,1.63,4.59,3.32h0c.7,1.69.21,4.13-1.08,5.42ZM123.57,228.85v-65.05c0-1.83,1.33-2.64,2.95-1.8l1.56.81,5.46,2.83c1.62.84,2.66,3,2.3,4.79l-11.63,58.48c-.36,1.79-.65,1.76-.65-.07ZM166.29,71.82l.26.41c.99,1.54.74,3.86-.55,5.15l-5.39,5.39c-1.29,1.29-2.85,1.15-3.46-.31-.61-1.47-.18-3.84.95-5.28l4.34-5.54c1.13-1.44,2.86-1.36,3.85.18ZM67.04,98.77c-1.76-.49-1.82-1.46-.13-2.16l15.99-6.62c1.69-.7,3.07.22,3.07,2.05v8.66c0,1.83-1.44,2.93-3.21,2.44l-6.91-1.92-8.82-2.45ZM82.76,141.81c1.76-.49,3.21.61,3.21,2.44v8.66c0,1.83-1.38,2.75-3.07,2.05l-15.99-6.62c-1.69-.7-1.63-1.67.13-2.16l8.82-2.45,6.91-1.92ZM78.65,173.12l-.26-.41c-.99-1.54-.74-3.86.55-5.15l5.39-5.39c1.29-1.29,2.85-1.15,3.46.31.61,1.47.18,3.84-.95,5.28l-4.34,5.54c-1.13,1.44-2.86,1.36-3.85-.18ZM93.12,169.62c-.7-1.69.22-2.96,2.05-2.82l7.8.58c1.82.13,3.61,1.71,3.97,3.51l11.63,58.47c.35,1.78.07,1.87-.63.18l-8.92-21.53-15.9-38.38ZM126.38,229.34l11.63-58.46c.36-1.79,2.14-3.37,3.97-3.51l6.8-.5,1-.07c1.82-.13,2.74,1.14,2.05,2.83l-24.82,59.92c-.7,1.68-.98,1.6-.62-.2ZM158.1,167.77c-1.13-1.44-1.56-3.82-.95-5.28.61-1.47,2.16-1.61,3.46-.31l5.39,5.39c1.29,1.29,1.54,3.61.55,5.15l-.26.41c-.99,1.54-2.72,1.62-3.85.18l-4.34-5.53ZM162.05,154.95c-1.69.7-3.07-.22-3.07-2.05v-8.66c0-1.83,1.44-2.93,3.21-2.44l5.97,1.66,9.75,2.71c1.76.49,1.82,1.46.13,2.16l-1.7.71-14.29,5.92ZM174.77,66.06c1.79-.38,2.19.36.9,1.65l-3.37,3.37c-1.29,1.29-3.16,1.1-4.14-.43h0c-.98-1.53-.33-3.1,1.46-3.49l3.97-.85,1.18-.25ZM161.44,64.26c.99,1.54.87,3.98-.25,5.42l-4.05,5.16c-1.13,1.44-2.63,1.23-3.33-.46l-20.42-49.31c-.7-1.69-1.04-3.46-.75-3.94.29-.48,1.33.39,2.32,1.93l7.2,11.21,19.28,30ZM130.04,15.41c.99,1.54,1.62,3.08,1.41,3.43h0c-.21.35-.96-.75-1.66-2.44l-.33-.8c-.7-1.69-.46-1.81.52-.28l.05.08ZM108.18,21.79l-26.54,41.3c-.99,1.54-3.26,2.48-5.05,2.1l-7.69-1.65c-1.79-.38-2.22-1.78-.96-3.11l37.51-39.38c1.26-1.32,2.79-2.33,3.41-2.23.61.1.3,1.44-.68,2.97ZM75.32,67.17c1.79.39,2.44,1.95,1.46,3.48h0c-.98,1.53-2.85,1.73-4.14.43l-3.37-3.37c-1.29-1.29-.89-2.04.9-1.65l5.16,1.11ZM57.46,100.52c1.69-.7,4.51-.87,6.28-.38l9.04,2.51,9.99,2.77c1.76.49,3.21,2.39,3.21,4.22v25.68c0,1.83-1.44,3.73-3.21,4.22l-9.99,2.77-9.04,2.51c-1.76.49-4.59.32-6.28-.38L7.54,123.74c-1.69-.7-1.69-1.85,0-2.55l49.91-20.67ZM70.17,178.88c-1.79.38-2.19-.36-.9-1.65l3.37-3.37c1.29-1.29,3.16-1.1,4.14.43h0c.98,1.53.33,3.1-1.46,3.49l-3.2.69-1.95.42ZM169.62,177.77c-1.79-.38-2.45-1.95-1.46-3.48h0c.98-1.53,2.85-1.73,4.14-.43l3.37,3.37c1.29,1.29.89,2.04-.9,1.65l-1.18-.25-3.97-.85ZM183.87,177.61c-1.32,1.26-3.47,1.24-4.76-.06l-5.59-5.59c-1.29-1.29-1.54-3.61-.55-5.15l10.46-16.28c.99-1.54,3.18-3.37,4.87-4.07l12.74-5.28,34.21-14.17c1.69-.7,1.99-.24.66,1.02l-15.14,14.42-36.89,35.15Z"/>
</svg>